<svg width="24" height="24" viewBox="0 0 24 24" fill="none" xmlns="http://www.w3.org/2000/svg">
<path d="M4.5538 5.90764C4.19474 5.90764 3.85038 6.05028 3.59648 6.30418C3.34259 6.55807 3.19995 6.90243 3.19995 7.26149V19.4461C3.19995 19.8052 3.34259 20.1495 3.59648 20.4034C3.85038 20.6573 4.19474 20.8 4.5538 20.8H19.4461C19.8052 20.8 20.1495 20.6573 20.4034 20.4034C20.6573 20.1495 20.8 19.8052 20.8 19.4461V7.26149C20.8 6.90243 20.6573 6.55807 20.4034 6.30418C20.1495 6.05028 19.8052 5.90764 19.4461 5.90764H16.7384M3.19995 11.323H20.8M7.26149 3.19995V8.61534M16.7384 3.19995V8.61534M7.26149 5.90764H14.0307" stroke="#B79DCB" stroke-width="1.6" stroke-linecap="round" stroke-linejoin="round"/>
</svg>
