<svg width="16" height="16" viewBox="0 0 16 16" fill="none" xmlns="http://www.w3.org/2000/svg">
<path d="M10.733 2.56049C11.0921 2.20152 11.5791 1.99991 12.0868 2C12.5946 2.00009 13.0815 2.20189 13.4405 2.56099C13.7994 2.92009 14.001 3.40709 14.0009 3.91485C14.0008 4.4226 13.7991 4.90952 13.44 5.26849L12.707 6.00249L9.99895 3.29449L10.733 2.56149V2.56049ZM9.29295 4.00149L3.33695 9.95549C3.15616 10.1364 3.01991 10.3569 2.93895 10.5995L2.02495 13.3425C1.9955 13.4306 1.99116 13.5251 2.01242 13.6155C2.03368 13.7059 2.0797 13.7886 2.14531 13.8543C2.21093 13.92 2.29355 13.9662 2.38392 13.9876C2.47429 14.009 2.56883 14.0048 2.65695 13.9755L5.39995 13.0605C5.64295 12.9805 5.86295 12.8435 6.04395 12.6625L12 6.70949L9.29195 4.00049L9.29295 4.00149Z" fill="white"/>
</svg>
