<svg width="16" height="16" viewBox="0 0 16 16" fill="none" xmlns="http://www.w3.org/2000/svg">
<path d="M8.94872 4.1793C8.64483 3.26761 7.35526 3.26761 7.05136 4.1793L6.5613 5.64948C6.42518 6.05782 6.04305 6.33325 5.61262 6.33325H4.18415C3.23888 6.33325 2.82132 7.52361 3.55946 8.11412L4.95555 9.23099C5.2827 9.49272 5.41203 9.93063 5.27954 10.3281L4.90419 11.4541C4.58907 12.3995 5.69943 13.1737 6.47757 12.5512L7.37535 11.833C7.74056 11.5408 8.25952 11.5408 8.62474 11.833L9.52251 12.5512C10.3007 13.1737 11.411 12.3995 11.0959 11.4541L10.7205 10.3281C10.5881 9.93063 10.7174 9.49272 11.0445 9.23099L12.4406 8.11412C13.1788 7.52361 12.7612 6.33325 11.8159 6.33325H10.3875C9.95704 6.33325 9.5749 6.05782 9.43878 5.64948L8.94872 4.1793Z" fill="url(#paint0_linear_33338_288)"/>
<defs>
<linearGradient id="paint0_linear_33338_288" x1="1.33337" y1="7.99992" x2="14.5349" y2="7.99992" gradientUnits="userSpaceOnUse">
<stop offset="0.0281251" stop-color="#844A47"/>
<stop offset="1" stop-color="#D76565"/>
</linearGradient>
</defs>
</svg>
