<svg width="16" height="18" viewBox="0 0 16 18" fill="none" xmlns="http://www.w3.org/2000/svg">
<path d="M14.2744 6.82925C14.5573 6.50596 14.3277 6 13.8981 6H11.5C11.2239 6 11 5.77614 11 5.5V0.5C11 0.223858 10.7761 0 10.5 0H5.5C5.22386 0 5 0.223858 5 0.5V5.5C5 5.77614 4.77614 6 4.5 6H2.10188C1.6723 6 1.44272 6.50596 1.7256 6.82925L7.62371 13.57C7.82292 13.7976 8.17708 13.7976 8.37629 13.57L14.2744 6.82925ZM0 16.5C0 16.2239 0.223858 16 0.5 16H15.5C15.7761 16 16 16.2239 16 16.5V17.5C16 17.7761 15.7761 18 15.5 18H0.5C0.223858 18 0 17.7761 0 17.5V16.5Z" fill="url(#paint0_linear_33338_600)"/>
<defs>
<linearGradient id="paint0_linear_33338_600" x1="0.571429" y1="1.35" x2="17.8968" y2="4.55261" gradientUnits="userSpaceOnUse">
<stop stop-color="#4C1D95"/>
<stop offset="1" stop-color="#881D95"/>
</linearGradient>
</defs>
</svg>
